<svg width="18" height="16" viewBox="0 0 18 16" fill="none" xmlns="http://www.w3.org/2000/svg">
<g clip-path="url(#clip0_207_4)">
<path d="M5.12 4.07C4.2 3.14 4.2 1.63 5.12 0.690002C6.04 -0.249998 7.53 -0.239998 8.44 0.690002L8.99 1.25L9.54 0.690002C10.46 -0.239998 11.95 -0.239998 12.86 0.690002C13.77 1.62 13.78 3.13 12.86 4.07L9.68 7.3C9.49 7.5 9.23 7.59 8.98 7.59C8.73 7.59 8.47 7.49 8.28 7.3L5.1 4.07H5.12ZM17.75 10.3C18.16 10.86 18.04 11.64 17.48 12.05L13.52 14.97C12.79 15.51 11.91 15.8 11 15.8H1C0.45 15.8 0 15.35 0 14.8V12.8C0 12.25 0.45 11.8 1 11.8H2.15L3.55 10.68C4.26 10.11 5.14 9.8 6.05 9.8H11C11.55 9.8 12 10.25 12 10.8C12 11.35 11.55 11.8 11 11.8H8.5C8.23 11.8 8 12.03 8 12.3C8 12.57 8.23 12.8 8.5 12.8H12.27L16.01 10.04C16.57 9.63 17.35 9.75 17.76 10.31L17.75 10.3Z" fill="#4D0C2F"/>
</g>
<defs>
<clipPath id="clip0_207_4">
<rect width="18" height="15.8" fill="white"/>
</clipPath>
</defs>
</svg>
