<svg width="19" height="19" viewBox="0 0 19 19" fill="none" xmlns="http://www.w3.org/2000/svg">
<g id="vuesax/outline/hierarchy">
<g id="hierarchy">
<path id="Vector" d="M4.50916 13.3696C4.20166 13.3696 3.94666 13.1146 3.94666 12.8071V7.55713C3.94666 7.24963 4.20166 6.99463 4.50916 6.99463C4.81666 6.99463 5.07166 7.24963 5.07166 7.55713V12.8071C5.07166 13.1146 4.81666 13.3696 4.50916 13.3696Z" fill="white"/>
<path id="Vector_2" d="M4.69666 7.74463C3.03916 7.74463 1.69666 6.40213 1.69666 4.74463C1.69666 3.08713 3.03916 1.74463 4.69666 1.74463C6.35416 1.74463 7.69666 3.08713 7.69666 4.74463C7.69666 6.40213 6.35416 7.74463 4.69666 7.74463ZM4.69666 2.86963C3.66166 2.86963 2.82166 3.70963 2.82166 4.74463C2.82166 5.77963 3.66166 6.61963 4.69666 6.61963C5.73166 6.61963 6.57166 5.77963 6.57166 4.74463C6.57166 3.70963 5.73166 2.86963 4.69666 2.86963Z" fill="white"/>
<path id="Vector_3" d="M4.50916 17.8696C2.95666 17.8696 1.69666 16.6096 1.69666 15.0571C1.69666 13.5046 2.95666 12.2446 4.50916 12.2446C6.06166 12.2446 7.32166 13.5046 7.32166 15.0571C7.32166 16.6096 6.06166 17.8696 4.50916 17.8696ZM4.50916 13.3696C3.57916 13.3696 2.82166 14.1271 2.82166 15.0571C2.82166 15.9871 3.57916 16.7446 4.50916 16.7446C5.43916 16.7446 6.19666 15.9871 6.19666 15.0571C6.19666 14.1271 5.43916 13.3696 4.50916 13.3696Z" fill="white"/>
<path id="Vector_4" d="M15.0092 17.8696C13.4567 17.8696 12.1967 16.6096 12.1967 15.0571C12.1967 13.5046 13.4567 12.2446 15.0092 12.2446C16.5617 12.2446 17.8217 13.5046 17.8217 15.0571C17.8217 16.6096 16.5617 17.8696 15.0092 17.8696ZM15.0092 13.3696C14.0792 13.3696 13.3217 14.1271 13.3217 15.0571C13.3217 15.9871 14.0792 16.7446 15.0092 16.7446C15.9392 16.7446 16.6967 15.9871 16.6967 15.0571C16.6967 14.1271 15.9392 13.3696 15.0092 13.3696Z" fill="white"/>
<path id="Vector_5" d="M14.3867 13.3995C14.1542 13.3995 13.9367 13.257 13.8542 13.0245C13.3067 11.4495 11.8217 10.392 10.1492 10.392C10.1417 10.392 10.1417 10.392 10.1342 10.392L7.56174 10.3995C7.55424 10.3995 7.55424 10.3995 7.54674 10.3995C5.90424 10.3995 4.47174 9.2895 4.05924 7.6995C3.98424 7.3995 4.16424 7.092 4.46424 7.017C4.76424 6.942 5.07174 7.12201 5.14674 7.42201C5.43174 8.51701 6.41424 9.28199 7.54674 9.28199H7.55424L10.1267 9.27451C10.1342 9.27451 10.1417 9.27451 10.1492 9.27451C12.2942 9.27451 14.2067 10.632 14.9117 12.6645C15.0167 12.957 14.8592 13.2795 14.5667 13.377C14.5067 13.3845 14.4467 13.3995 14.3867 13.3995Z" fill="white"/>
</g>
</g>
</svg>
