<svg width="154" height="24" viewBox="0 0 154 24" fill="none" xmlns="http://www.w3.org/2000/svg">
<g id="stories 10 x">
<path id="Vector" d="M10.6884 10.4107C10.6884 10.828 10.8231 10.9231 11.0134 11.0138C11.187 11.0898 11.3717 11.1368 11.5598 11.1514H15.8833C16.8182 11.0988 17.7363 11.4098 18.4508 12.0218C18.8247 12.3787 19.1163 12.814 19.3077 13.2962C19.4991 13.7784 19.5848 14.2964 19.5581 14.8155C19.577 15.3257 19.4924 15.8348 19.3088 16.3114C19.1252 16.788 18.8481 17.221 18.4931 17.5846C18.138 17.9483 17.7129 18.2347 17.2444 18.4271C16.7759 18.6184 16.2729 18.7124 15.7665 18.7001L8.17108 18.7135C8.10875 18.7135 8.04755 18.7012 7.98968 18.6777C7.93181 18.6542 7.88061 18.6184 7.8361 18.5748C7.7927 18.5301 7.75708 18.4786 7.73371 18.4204C7.71034 18.3622 7.6981 18.3007 7.6981 18.238V16.1704C7.6981 16.1078 7.71034 16.0463 7.73371 15.9881C7.75708 15.9299 7.79158 15.8773 7.8361 15.8337C7.8795 15.7889 7.93181 15.7542 7.98856 15.7307C8.04532 15.7061 8.10653 15.6938 8.16885 15.6938L15.752 15.6804C16.5733 15.6468 16.5733 15.0841 16.5733 14.8099C16.5956 14.6186 16.5544 14.4262 16.4565 14.2606C16.343 14.189 16.2105 14.1543 16.077 14.161L15.9802 14.1756L15.9368 14.1666H11.5631C10.9344 14.1532 10.3145 14.0089 9.74358 13.7415C9.11591 13.4517 8.58729 12.9807 8.22338 12.3877C7.85947 11.7947 7.67807 11.1066 7.70033 10.4107C7.67028 9.72486 7.83832 9.04461 8.18443 8.45387C8.53054 7.86313 9.03912 7.38539 9.64787 7.08107C10.2032 6.80136 10.8119 6.64472 11.4329 6.62347H19.1741C19.2988 6.62347 19.419 6.67381 19.5069 6.7622C19.5948 6.85171 19.6449 6.97254 19.6449 7.09785V9.16657C19.6449 9.29299 19.5948 9.41383 19.5069 9.50222C19.419 9.59172 19.2988 9.64095 19.1741 9.64095H11.4786C11.2115 9.6555 10.6884 9.69354 10.6884 10.4107Z" fill="white"/>
<path id="Vector_2" d="M33.3211 7.10568V9.17327C33.3211 9.23593 33.3089 9.29746 33.2855 9.35564C33.2621 9.41382 33.2276 9.46641 33.1831 9.51004C33.1397 9.55479 33.0874 9.58948 33.0306 9.61297C32.9739 9.63647 32.9127 9.64877 32.8504 9.64877H29.3359C29.2112 9.64877 29.091 9.69912 29.0031 9.78751C28.9152 9.87702 28.8651 9.99785 28.8651 10.1232V18.2291C28.8651 18.3555 28.815 18.4763 28.7271 18.5647C28.6392 18.6542 28.519 18.7035 28.3944 18.7035H26.3467C26.222 18.7035 26.1018 18.6531 26.0139 18.5647C25.926 18.4752 25.8759 18.3544 25.8759 18.2291V10.1232C25.8759 9.99673 25.8259 9.8759 25.7379 9.78751C25.65 9.698 25.5298 9.64877 25.4052 9.64877H21.8885C21.7638 9.64877 21.6436 9.59843 21.5557 9.50892C21.4678 9.41941 21.4177 9.29858 21.4177 9.17215V7.10456C21.4177 6.97813 21.4678 6.8573 21.5557 6.76891C21.6436 6.6794 21.7638 6.63017 21.8885 6.63017H32.8504C32.975 6.63017 33.0952 6.68052 33.1831 6.76891C33.2721 6.85841 33.3211 6.97925 33.3211 7.10568Z" fill="white"/>
<path id="Vector_3" d="M45.3458 12.6674C45.3458 13.8612 44.9952 15.0292 44.3386 16.0216C43.682 17.0152 42.7483 17.7883 41.6555 18.2459C40.5626 18.7035 39.3607 18.8221 38.2011 18.5893C37.0415 18.3566 35.9753 17.7816 35.1395 16.9368C34.3038 16.0921 33.734 15.0169 33.5036 13.8455C33.2732 12.6741 33.3912 11.4602 33.8441 10.357C34.2971 9.25383 35.0628 8.31066 36.0465 7.64719C37.0303 6.98373 38.1855 6.62906 39.3685 6.62906C40.9543 6.62906 42.4757 7.26567 43.5963 8.39793C44.7159 9.53018 45.3458 11.0663 45.3458 12.6674ZM39.3663 15.6871C39.9572 15.6871 40.5359 15.5103 41.0278 15.1792C41.5197 14.848 41.9025 14.3758 42.1296 13.8243C42.3555 13.2727 42.4156 12.6651 42.2998 12.08C42.1841 11.4937 41.9003 10.9556 41.4819 10.5338C41.0634 10.1109 40.5315 9.82332 39.9505 9.70696C39.3707 9.5906 38.7698 9.6499 38.2233 9.87814C37.6769 10.1064 37.2095 10.4935 36.8812 10.9903C36.5529 11.487 36.3771 12.071 36.3771 12.6685C36.3782 13.4696 36.6931 14.236 37.2529 14.8021C37.8138 15.3671 38.5739 15.686 39.3663 15.6871Z" fill="white"/>
<path id="Vector_4" d="M55.3072 14.5381C55.2771 14.5056 55.2571 14.4665 55.2482 14.4228C55.2404 14.3792 55.2438 14.3344 55.2605 14.2942C55.2749 14.2528 55.3016 14.217 55.3361 14.1901C55.3706 14.1633 55.4129 14.1476 55.4563 14.1442C56.0061 14.095 56.5447 13.9563 57.05 13.7314C57.6654 13.4259 58.1784 12.9449 58.5256 12.3485C58.874 11.7522 59.042 11.0663 59.0086 10.3749C59.0287 9.87478 58.9463 9.37578 58.7671 8.90923C58.588 8.44268 58.3153 8.01864 57.967 7.66285C57.2536 6.99939 56.3188 6.63017 55.3495 6.62794H47.5805C47.5181 6.62794 47.4569 6.64025 47.3991 6.66374C47.3412 6.68724 47.29 6.72304 47.2455 6.76667C47.2021 6.81143 47.1665 6.86401 47.1431 6.92107C47.1197 6.97925 47.1075 7.04079 47.1075 7.10344V9.35788C47.1075 9.43396 47.1375 9.50669 47.1909 9.56039C47.2444 9.6141 47.3167 9.6443 47.3913 9.6443H55.3929C55.5676 9.65885 55.7345 9.7215 55.877 9.82443C55.9838 9.98555 56.0339 10.1802 56.0172 10.3738C56.0306 10.4812 56.0194 10.5908 55.9849 10.6926C55.9493 10.7956 55.8915 10.8873 55.8147 10.9634C55.7379 11.0395 55.6444 11.0965 55.5431 11.1301C55.4407 11.1637 55.3328 11.1726 55.226 11.157H47.4213C47.379 11.157 47.3378 11.1648 47.3 11.1816C47.2611 11.1972 47.2266 11.2219 47.1965 11.2509C47.1665 11.2812 47.1431 11.3158 47.1275 11.355C47.1119 11.3942 47.103 11.4355 47.103 11.4781V18.2302C47.103 18.2929 47.1153 18.3555 47.1386 18.4126C47.162 18.4708 47.1976 18.5233 47.241 18.567C47.2844 18.6117 47.3367 18.6464 47.3946 18.6699C47.4525 18.6934 47.5137 18.7057 47.576 18.7057H49.6204C49.6827 18.7057 49.7439 18.6934 49.8018 18.6699C49.8596 18.6464 49.9108 18.6106 49.9553 18.567C49.9987 18.5222 50.0344 18.4696 50.0577 18.4126C50.0811 18.3544 50.0933 18.2929 50.0933 18.2302V14.6488C50.0933 14.5862 50.1067 14.5246 50.1301 14.4676C50.1545 14.4105 50.189 14.3579 50.2336 14.3143C50.277 14.2695 50.3282 14.2349 50.386 14.2114C50.4428 14.1879 50.504 14.1756 50.5663 14.1767H50.7232C50.7878 14.1778 50.8523 14.1912 50.9113 14.2181C50.9703 14.2449 51.0237 14.283 51.0682 14.3322L54.8743 18.5491C54.9188 18.5983 54.9722 18.6375 55.0334 18.6643C55.0935 18.6912 55.1592 18.7046 55.2248 18.7046H58.5268C58.5724 18.7046 58.6169 18.6912 58.6559 18.6654C58.6937 18.6408 58.7249 18.605 58.7438 18.5625C58.7638 18.52 58.7694 18.4719 58.7616 18.426C58.7538 18.379 58.7326 18.3365 58.7015 18.3018L55.3072 14.5381Z" fill="white"/>
<path id="Vector_5" d="M61.2467 6.62906H63.2944C63.419 6.62906 63.5392 6.67941 63.6271 6.76779C63.7151 6.8573 63.7651 6.97813 63.7651 7.10344V18.2302C63.7651 18.3566 63.7151 18.4775 63.6271 18.5659C63.5392 18.6554 63.419 18.7046 63.2944 18.7046H61.2467C61.122 18.7046 61.0019 18.6542 60.9139 18.5659C60.826 18.4763 60.7759 18.3555 60.7759 18.2302V7.10456C60.7759 6.97813 60.826 6.85842 60.9139 6.76891C61.0019 6.68053 61.122 6.63018 61.2467 6.62906Z" fill="white"/>
<path id="Vector_6" d="M68.5294 10.1243V10.6826C68.5294 10.809 68.5795 10.9287 68.6674 11.0182C68.7553 11.1077 68.8755 11.157 69.0001 11.1581H71.9303C72.055 11.1581 72.1752 11.2084 72.2631 11.2968C72.351 11.3852 72.4011 11.5072 72.4011 11.6325V13.7012C72.4011 13.7638 72.3888 13.8254 72.3655 13.8836C72.3421 13.9417 72.3076 13.9932 72.2631 14.038C72.2197 14.0827 72.1674 14.1174 72.1106 14.1409C72.0539 14.1644 71.9927 14.1767 71.9303 14.1767H69.0001C68.8755 14.1767 68.7553 14.227 68.6674 14.3154C68.5795 14.4049 68.5294 14.5258 68.5294 14.6511V15.2094C68.5294 15.3358 68.5795 15.4555 68.6674 15.545C68.7553 15.6345 68.8755 15.6837 69.0001 15.6849H77.0262C77.1509 15.6849 77.2711 15.7352 77.359 15.8236C77.4469 15.9131 77.497 16.0339 77.497 16.1593V18.228C77.497 18.3544 77.4469 18.4752 77.359 18.5636C77.2711 18.6531 77.1509 18.7024 77.0262 18.7024H66.0098C65.8852 18.7024 65.765 18.652 65.6771 18.5636C65.5891 18.4741 65.5391 18.3533 65.5391 18.228V7.10344C65.5391 6.97701 65.5891 6.85618 65.6771 6.76779C65.765 6.67829 65.8852 6.62906 66.0098 6.62906H77.0262C77.1509 6.62906 77.2711 6.67941 77.359 6.76779C77.4469 6.8573 77.497 6.97813 77.497 7.10344V9.17104C77.497 9.29747 77.448 9.4183 77.359 9.50781C77.2711 9.59731 77.1509 9.64766 77.0262 9.64766H69.0001C68.8755 9.64766 68.7553 9.69801 68.6674 9.7864C68.5783 9.87702 68.5294 9.99785 68.5294 10.1243Z" fill="white"/>
<path id="Vector_7" d="M82.2534 10.4107C82.2534 10.828 82.3881 10.9231 82.5784 11.0138C82.752 11.0898 82.9367 11.1368 83.1248 11.1514H87.4506C88.3854 11.0988 89.3035 11.4098 90.018 12.0218C90.3919 12.3787 90.6835 12.8139 90.8749 13.2962C91.0663 13.7784 91.152 14.2975 91.1253 14.8155C91.1442 15.3257 91.0597 15.8348 90.876 16.3114C90.6924 16.788 90.4153 17.221 90.0603 17.5846C89.7053 17.9483 89.2802 18.2358 88.8116 18.4271C88.3431 18.6184 87.8401 18.7124 87.3337 18.7001L79.7383 18.7135C79.6137 18.7135 79.4935 18.6632 79.4056 18.5748C79.3177 18.4853 79.2676 18.3645 79.2676 18.2392V16.1716C79.2676 16.1089 79.2798 16.0474 79.3032 15.9892C79.3266 15.931 79.3611 15.8784 79.4056 15.8348C79.449 15.79 79.5013 15.7554 79.558 15.7307C79.6148 15.7072 79.676 15.6938 79.7383 15.6938L87.3215 15.6804C88.1428 15.6468 88.1428 15.0841 88.1428 14.8099C88.1651 14.6186 88.1239 14.4262 88.0259 14.2606C87.9124 14.189 87.78 14.1543 87.6465 14.161L87.5496 14.1756L87.5062 14.1666H83.1259C82.4972 14.1532 81.8773 14.0077 81.3064 13.7415C80.6787 13.4506 80.1501 12.9795 79.7862 12.3854C79.4234 11.7925 79.242 11.1033 79.2642 10.4062C79.2342 9.72038 79.4022 9.04014 79.7483 8.44939C80.0944 7.85865 80.603 7.38091 81.2118 7.07659C81.7671 6.79688 82.3758 6.64025 82.9968 6.61899H90.738C90.8627 6.61899 90.9829 6.66934 91.0708 6.75772C91.1587 6.84723 91.2088 6.96806 91.2088 7.09337V9.16544C91.2088 9.29187 91.1587 9.41271 91.0708 9.50109C90.9829 9.5906 90.8627 9.63983 90.738 9.63983H83.0425C82.7765 9.65325 82.2523 9.69018 82.2534 10.4073" fill="white"/>
<path id="Vector_8" d="M108.033 2.47372H102.423C102.115 2.47372 101.819 2.59791 101.602 2.81832C101.384 3.03873 101.261 3.33634 101.261 3.64738V7.00163C101.261 7.31266 101.384 7.61139 101.602 7.83068C101.819 8.05109 102.115 8.17416 102.423 8.17528H103.186C103.282 8.17528 103.375 8.21444 103.443 8.28269C103.511 8.35206 103.55 8.44492 103.55 8.54338V21.6885C103.55 21.9995 103.672 22.2983 103.89 22.5187C104.108 22.7391 104.403 22.8622 104.712 22.8633H108.033C108.34 22.8633 108.638 22.7391 108.856 22.5187C109.073 22.2983 109.196 22.0007 109.196 21.6885V3.64738C109.196 3.33634 109.073 3.03761 108.856 2.8172C108.638 2.59791 108.342 2.47372 108.033 2.47372Z" fill="#FF348D"/>
<path id="Vector_9" d="M121.376 2.47372C119.379 2.47372 117.428 3.07118 115.767 4.19113C114.106 5.31108 112.813 6.90317 112.049 8.76602C111.285 10.6289 111.085 12.6786 111.474 14.6555C111.864 16.6325 112.824 18.4495 114.237 19.8749C115.648 21.3003 117.446 22.2714 119.405 22.6652C121.362 23.0591 123.391 22.8577 125.236 22.0868C127.08 21.3159 128.657 20.0103 129.768 18.3331C130.877 16.6571 131.469 14.6869 131.471 12.6707C131.464 9.96877 130.4 7.37867 128.507 5.46771C126.616 3.55787 124.051 2.48044 121.376 2.47372ZM125.826 12.6663C125.824 13.8399 125.366 14.9666 124.554 15.8057C123.742 16.6448 122.637 17.1304 121.475 17.1595H121.377C120.498 17.1595 119.637 16.8954 118.905 16.402C118.174 15.9086 117.603 15.2071 117.267 14.3859C116.931 13.5647 116.842 12.6618 117.014 11.7902C117.187 10.9187 117.61 10.1187 118.232 9.48991C118.854 8.86112 119.647 8.43373 120.51 8.26031C121.372 8.08689 122.267 8.17528 123.079 8.51541C123.893 8.85553 124.587 9.43061 125.076 10.1702C125.565 10.9086 125.826 11.7779 125.826 12.6663Z" fill="#FF348D"/>
<path id="Vector_10" d="M143.282 12.5007C143.232 12.5734 143.204 12.6607 143.204 12.7502C143.204 12.8397 143.232 12.927 143.282 12.9997L146.348 17.4895L146.965 18.3958C147.019 18.4708 147.051 18.5591 147.06 18.6509C147.069 18.7426 147.053 18.8355 147.014 18.9205C146.976 19.0044 146.916 19.0772 146.841 19.1297C146.765 19.1823 146.677 19.2148 146.586 19.2215L141.538 19.3625C141.457 19.3636 141.378 19.3457 141.305 19.3076C141.233 19.2707 141.172 19.2159 141.126 19.1488L140.217 17.8241C140.171 17.7838 140.116 17.7525 140.058 17.7346C139.999 17.7167 139.937 17.7111 139.876 17.7189C139.815 17.7267 139.756 17.7469 139.704 17.7793C139.651 17.8118 139.606 17.8543 139.57 17.9057L136.038 23.0524C135.998 23.1105 135.946 23.1586 135.883 23.1911C135.822 23.2247 135.753 23.2414 135.683 23.2414H130.376C130.297 23.2414 130.22 23.2202 130.151 23.1788C130.083 23.1374 130.028 23.0781 129.992 23.0076C129.955 22.936 129.937 22.8566 129.943 22.776C129.947 22.6955 129.974 22.6183 130.019 22.5522L136.568 12.9997C136.609 12.9404 136.634 12.8721 136.642 12.8005C136.65 12.7289 136.641 12.6562 136.615 12.5891L132.867 7.12806C132.813 7.05309 132.781 6.96583 132.772 6.87296C132.763 6.78122 132.778 6.68836 132.816 6.60444C132.854 6.52053 132.914 6.44781 132.989 6.39522C133.063 6.34152 133.15 6.31019 133.241 6.30236L138.334 6.16139C138.415 6.16027 138.493 6.17817 138.564 6.21621C138.635 6.25313 138.695 6.30795 138.741 6.37508L139.602 7.63936C139.644 7.68411 139.691 7.71992 139.747 7.74453C139.803 7.76915 139.863 7.78145 139.922 7.78033C139.992 7.78033 140.061 7.76243 140.123 7.72999C140.186 7.69642 140.238 7.64943 140.278 7.59125L143.923 2.2824C143.963 2.22199 144.016 2.17388 144.08 2.14031C144.143 2.10675 144.213 2.09108 144.284 2.0922H149.588C149.667 2.09108 149.745 2.11234 149.813 2.15262C149.881 2.19402 149.938 2.2522 149.975 2.3238C150.011 2.39429 150.029 2.47484 150.023 2.55428C150.019 2.63372 149.991 2.71092 149.947 2.77693L143.282 12.5007Z" fill="#FF348D"/>
<path id="Vector_11" d="M99.4597 11.9379L95.3409 9.53578C95.214 9.46193 95.0705 9.42278 94.9236 9.42278C94.7767 9.42278 94.6331 9.46193 94.5062 9.53578C94.3794 9.60962 94.2748 9.71591 94.2013 9.84457C94.1279 9.97212 94.09 10.1176 94.09 10.2653V15.0684C94.09 15.2161 94.1279 15.3615 94.2013 15.4891C94.2748 15.6166 94.3794 15.724 94.5062 15.7979C94.6331 15.8717 94.7767 15.9109 94.9236 15.9109C95.0705 15.9109 95.214 15.8717 95.3409 15.7979L99.4597 13.3957C99.5866 13.3219 99.6923 13.2156 99.7657 13.0881C99.8381 12.9605 99.877 12.8151 99.877 12.6674C99.877 12.5197 99.8381 12.3742 99.7657 12.2467C99.6923 12.118 99.5866 12.0117 99.4597 11.9379Z" fill="#FF348D"/>
</g>
</svg>
