<svg width="25" height="25" viewBox="0 0 25 25" fill="none" xmlns="http://www.w3.org/2000/svg">
<g id="Shopping cart" clip-path="url(#clip0_12661_319)">
<g id="vuesax/outline/category-2">
<g id="category-2">
<path id="Vector" d="M18.117 11.298H16.4478C14.428 11.298 13.318 10.1879 13.318 8.16818V6.49895C13.318 4.47918 14.428 3.36914 16.4478 3.36914H18.117C20.1368 3.36914 21.2468 4.47918 21.2468 6.49895V8.16818C21.2468 10.1879 20.1368 11.298 18.117 11.298ZM16.4478 4.62106C15.1291 4.62106 14.5699 5.18026 14.5699 6.49895V8.16818C14.5699 9.48687 15.1291 10.0461 16.4478 10.0461H18.117C19.4357 10.0461 19.9949 9.48687 19.9949 8.16818V6.49895C19.9949 5.18026 19.4357 4.62106 18.117 4.62106H16.4478Z" fill="white"/>
<path id="Vector_2" d="M8.10165 21.3131H6.43242C4.41265 21.3131 3.30261 20.2031 3.30261 18.1833V16.5141C3.30261 14.4943 4.41265 13.3843 6.43242 13.3843H8.10165C10.1214 13.3843 11.2315 14.4943 11.2315 16.5141V18.1833C11.2315 20.2031 10.1214 21.3131 8.10165 21.3131ZM6.43242 14.6362C5.11373 14.6362 4.55453 15.1954 4.55453 16.5141V18.1833C4.55453 19.502 5.11373 20.0612 6.43242 20.0612H8.10165C9.42034 20.0612 9.97953 19.502 9.97953 18.1833V16.5141C9.97953 15.1954 9.42034 14.6362 8.10165 14.6362H6.43242Z" fill="white"/>
<path id="Vector_3" d="M7.26703 11.298C5.08034 11.298 3.30261 9.52025 3.30261 7.33356C3.30261 5.14687 5.08034 3.36914 7.26703 3.36914C9.45373 3.36914 11.2315 5.14687 11.2315 7.33356C11.2315 9.52025 9.45373 11.298 7.26703 11.298ZM7.26703 4.62106C5.77307 4.62106 4.55453 5.8396 4.55453 7.33356C4.55453 8.82752 5.77307 10.0461 7.26703 10.0461C8.76099 10.0461 9.97953 8.82752 9.97953 7.33356C9.97953 5.8396 8.76099 4.62106 7.26703 4.62106Z" fill="white"/>
<path id="Vector_4" d="M17.2824 21.3131C15.0957 21.3131 13.318 19.5354 13.318 17.3487C13.318 15.162 15.0957 13.3843 17.2824 13.3843C19.4691 13.3843 21.2468 15.162 21.2468 17.3487C21.2468 19.5354 19.4691 21.3131 17.2824 21.3131ZM17.2824 14.6362C15.7885 14.6362 14.5699 15.8547 14.5699 17.3487C14.5699 18.8427 15.7885 20.0612 17.2824 20.0612C18.7764 20.0612 19.9949 18.8427 19.9949 17.3487C19.9949 15.8547 18.7764 14.6362 17.2824 14.6362Z" fill="white"/>
</g>
</g>
</g>
<defs>
<clipPath id="clip0_12661_319">
<rect width="24" height="24" fill="white" transform="translate(0.759277 0.807129)"/>
</clipPath>
</defs>
</svg>
