<svg width="18" height="18" viewBox="0 0 18 18" fill="none" xmlns="http://www.w3.org/2000/svg">
<g id="vuesax/outline/briefcase">
<g id="briefcase">
<path id="Vector" d="M12.074 16.422H6.40735C3.13485 16.422 2.52568 14.899 2.36985 13.4186L1.8386 7.74487C1.76068 7.00112 1.73943 5.9032 2.4761 5.08154C3.1136 4.3732 4.16901 4.0332 5.69901 4.0332H12.7823C14.3194 4.0332 15.3748 4.38029 16.0053 5.08154C16.7419 5.9032 16.7207 7.00112 16.6428 7.75195L16.1115 13.4115C15.9557 14.899 15.3465 16.422 12.074 16.422ZM5.69901 5.08862C4.50193 5.08862 3.68026 5.32237 3.26235 5.78987C2.91526 6.17237 2.80193 6.76029 2.89401 7.63862L3.42526 13.3124C3.54568 14.4315 3.85026 15.3595 6.40735 15.3595H12.074C14.624 15.3595 14.9357 14.4315 15.0561 13.3053L15.5873 7.6457C15.6794 6.76029 15.5661 6.17237 15.219 5.78987C14.8011 5.32237 13.9794 5.08862 12.7823 5.08862H5.69901Z" fill="white"/>
<path id="Vector_2" d="M12.074 5.08822C11.7836 5.08822 11.5428 4.84738 11.5428 4.55697V3.9903C11.5428 2.72947 11.5428 2.25488 9.80735 2.25488H8.67402C6.9386 2.25488 6.9386 2.72947 6.9386 3.9903V4.55697C6.9386 4.84738 6.69777 5.08822 6.40735 5.08822C6.11693 5.08822 5.8761 4.84738 5.8761 4.55697V3.9903C5.8761 2.74363 5.8761 1.19238 8.67402 1.19238H9.80735C12.6053 1.19238 12.6053 2.74363 12.6053 3.9903V4.55697C12.6053 4.84738 12.3644 5.08822 12.074 5.08822Z" fill="white"/>
<path id="Vector_3" d="M9.24064 12.1717C7.29272 12.1717 7.29272 10.9675 7.29272 10.245V9.51546C7.29272 8.51671 7.53356 8.27588 8.53231 8.27588H9.94897C10.9477 8.27588 11.1886 8.51671 11.1886 9.51546V10.2238C11.1886 10.9605 11.1886 12.1717 9.24064 12.1717ZM8.35522 9.33838C8.35522 9.39505 8.35522 9.4588 8.35522 9.51546V10.245C8.35522 10.9746 8.35522 11.1092 9.24064 11.1092C10.1261 11.1092 10.1261 10.9959 10.1261 10.238V9.51546C10.1261 9.4588 10.1261 9.39505 10.1261 9.33838C10.0694 9.33838 10.0056 9.33838 9.94897 9.33838H8.53231C8.47564 9.33838 8.41189 9.33838 8.35522 9.33838Z" fill="white"/>
<path id="Vector_4" d="M10.6573 10.7695C10.3953 10.7695 10.1615 10.5711 10.1332 10.302C10.0978 10.0115 10.3032 9.74238 10.5936 9.70696C12.4636 9.47321 14.2557 8.76488 15.7644 7.66696C15.9982 7.48988 16.3311 7.54655 16.5082 7.78738C16.6782 8.02113 16.6286 8.35405 16.3878 8.53113C14.7303 9.7353 12.7753 10.5074 10.7211 10.7695C10.6998 10.7695 10.6786 10.7695 10.6573 10.7695Z" fill="white"/>
<path id="Vector_5" d="M7.82402 10.7764C7.80277 10.7764 7.78152 10.7764 7.76027 10.7764C5.81944 10.5568 3.92819 9.84851 2.29194 8.72935C2.0511 8.56643 1.98735 8.23351 2.15027 7.99268C2.31319 7.75185 2.6461 7.6881 2.88694 7.85101C4.38152 8.87101 6.10277 9.5156 7.8736 9.72101C8.16402 9.75643 8.37652 10.0185 8.3411 10.3089C8.31985 10.5781 8.09319 10.7764 7.82402 10.7764Z" fill="white"/>
</g>
</g>
</svg>
