<svg width="21" height="22" viewBox="0 0 21 22" fill="none" xmlns="http://www.w3.org/2000/svg">
<g id="vuesax/outline/calculator">
<g id="calculator">
<path id="Vector" d="M12.4074 20.2134H9.07406C4.54906 20.2134 2.61572 18.1834 2.61572 13.4321V8.18213C2.61572 3.43088 4.54906 1.40088 9.07406 1.40088H12.4074C16.9324 1.40088 18.8657 3.43088 18.8657 8.18213V13.4321C18.8657 18.1834 16.9324 20.2134 12.4074 20.2134ZM9.07406 2.71338C5.23239 2.71338 3.86572 4.14838 3.86572 8.18213V13.4321C3.86572 17.4659 5.23239 18.9009 9.07406 18.9009H12.4074C16.2491 18.9009 17.6157 17.4659 17.6157 13.4321V8.18213C17.6157 4.14838 16.2491 2.71338 12.4074 2.71338H9.07406Z" fill="white"/>
<path id="Vector_2" d="M13.2407 9.7832H8.24072C7.20739 9.7832 6.36572 8.89945 6.36572 7.81445V6.93945C6.36572 5.85445 7.20739 4.9707 8.24072 4.9707H13.2407C14.2741 4.9707 15.1157 5.85445 15.1157 6.93945V7.81445C15.1157 8.89945 14.2741 9.7832 13.2407 9.7832ZM8.24072 6.2832C7.89906 6.2832 7.61572 6.5807 7.61572 6.93945V7.81445C7.61572 8.1732 7.89906 8.4707 8.24072 8.4707H13.2407C13.5824 8.4707 13.8657 8.1732 13.8657 7.81445V6.93945C13.8657 6.5807 13.5824 6.2832 13.2407 6.2832H8.24072Z" fill="white"/>
<path id="Vector_3" d="M7.53234 13.3621C7.424 13.3621 7.31567 13.3358 7.21567 13.2921C7.11567 13.2483 7.024 13.1871 6.949 13.1083C6.79067 12.9421 6.70734 12.7233 6.70734 12.4871C6.70734 12.3733 6.724 12.2596 6.76567 12.1546C6.80734 12.0408 6.86567 11.9533 6.949 11.8658C6.98234 11.8308 7.024 11.7871 7.074 11.7608C7.11567 11.7258 7.16567 11.6996 7.21567 11.6821C7.26567 11.6558 7.324 11.6383 7.374 11.6296C7.64067 11.5683 7.93234 11.6646 8.124 11.8658C8.199 11.9446 8.26567 12.0408 8.30734 12.1546C8.349 12.2596 8.374 12.3733 8.374 12.4871C8.374 12.7233 8.28234 12.9421 8.124 13.1083C7.96567 13.2746 7.75734 13.3621 7.53234 13.3621Z" fill="white"/>
<path id="Vector_4" d="M10.874 13.3618C10.649 13.3618 10.4406 13.2743 10.2823 13.1081C10.124 12.9418 10.0406 12.7231 10.0406 12.4868C10.0406 12.3731 10.0573 12.2593 10.099 12.1543C10.1406 12.0406 10.199 11.9531 10.2823 11.8656C10.3156 11.8306 10.3573 11.7868 10.4073 11.7606C10.449 11.7256 10.499 11.6993 10.549 11.6818C10.599 11.6556 10.6573 11.6381 10.7073 11.6293C10.8656 11.5943 11.0323 11.6118 11.1906 11.6818C11.2906 11.7256 11.3823 11.7868 11.4573 11.8656C11.5323 11.9531 11.599 12.0406 11.6406 12.1543C11.6823 12.2593 11.7073 12.3731 11.7073 12.4868C11.7073 12.7231 11.6156 12.9418 11.4573 13.1081C11.299 13.2743 11.0906 13.3618 10.874 13.3618Z" fill="white"/>
<path id="Vector_5" d="M14.199 13.3621C14.0907 13.3621 13.9824 13.3359 13.8824 13.2921C13.7824 13.2484 13.6907 13.1871 13.6157 13.1084C13.5324 13.0209 13.474 12.9246 13.4324 12.8196C13.3907 12.7146 13.374 12.6009 13.374 12.4871C13.374 12.3734 13.3907 12.2596 13.4324 12.1546C13.474 12.0409 13.5324 11.9534 13.6157 11.8659C13.924 11.5421 14.4824 11.5421 14.7907 11.8659C14.949 12.0321 15.0407 12.2596 15.0407 12.4871C15.0407 12.7234 14.949 12.9421 14.7907 13.1084C14.6407 13.2659 14.4324 13.3621 14.199 13.3621Z" fill="white"/>
<path id="Vector_6" d="M7.54064 16.8622C7.31564 16.8622 7.10731 16.7747 6.94897 16.6084C6.79064 16.4422 6.69897 16.2234 6.69897 15.9872C6.69897 15.7597 6.79064 15.5322 6.94897 15.3659C6.98231 15.3309 7.03231 15.2872 7.07397 15.2609C7.11564 15.2259 7.16564 15.1997 7.21564 15.1822C7.26564 15.1559 7.32397 15.1384 7.37397 15.1297C7.64897 15.0772 7.93231 15.1647 8.12397 15.3659C8.16564 15.4097 8.19897 15.4534 8.23231 15.4972C8.25731 15.5497 8.28231 15.6022 8.30731 15.6547C8.32397 15.7072 8.34064 15.7597 8.35731 15.8122C8.36564 15.8734 8.37397 15.9259 8.37397 15.9872C8.37397 16.2234 8.28231 16.4422 8.12397 16.6084C7.96564 16.7747 7.75731 16.8622 7.54064 16.8622Z" fill="white"/>
<path id="Vector_7" d="M10.874 16.8622C10.649 16.8622 10.4407 16.7747 10.2823 16.6084C10.124 16.4422 10.0323 16.2234 10.0323 15.9872C10.0323 15.7597 10.124 15.5322 10.2823 15.3659C10.474 15.1647 10.7657 15.0772 11.0323 15.1297C11.0823 15.1384 11.1407 15.1559 11.1907 15.1822C11.2407 15.1997 11.2907 15.2259 11.3323 15.2609C11.374 15.2872 11.4157 15.3309 11.4573 15.3659C11.6157 15.5322 11.699 15.7597 11.699 15.9872C11.699 16.2234 11.6157 16.4422 11.4573 16.6084C11.299 16.7747 11.0907 16.8622 10.874 16.8622Z" fill="white"/>
<path id="Vector_8" d="M14.199 16.8618C13.9824 16.8618 13.774 16.7743 13.6157 16.6081C13.4574 16.4418 13.374 16.2231 13.374 15.9868C13.374 15.7593 13.4574 15.5318 13.6157 15.3656C13.6907 15.2868 13.7824 15.2256 13.8824 15.1818C14.1907 15.0506 14.5657 15.1206 14.7907 15.3656C14.949 15.5318 15.0324 15.7593 15.0324 15.9868C15.0324 16.2231 14.949 16.4418 14.7907 16.6081C14.7157 16.6868 14.624 16.7481 14.524 16.7918C14.424 16.8356 14.3157 16.8618 14.199 16.8618Z" fill="white"/>
</g>
</g>
</svg>
