<svg width="23" height="22" viewBox="0 0 23 22" fill="none" xmlns="http://www.w3.org/2000/svg">
<g id="vuesax/outline/heart">
<g id="heart">
<path id="Vector" d="M11.4 19.6929C11.1208 19.6929 10.8505 19.6569 10.6253 19.5758C7.18423 18.3957 1.71631 14.207 1.71631 8.01839C1.71631 4.86555 4.2656 2.30725 7.40042 2.30725C8.92279 2.30725 10.3461 2.90179 11.4 3.96474C12.454 2.90179 13.8772 2.30725 15.3996 2.30725C18.5344 2.30725 21.0837 4.87456 21.0837 8.01839C21.0837 14.216 15.6158 18.3957 12.1747 19.5758C11.9495 19.6569 11.6793 19.6929 11.4 19.6929ZM7.40042 3.65847C5.01327 3.65847 3.06752 5.61322 3.06752 8.01839C3.06752 14.1709 8.98585 17.594 11.0667 18.3056C11.2289 18.3597 11.5802 18.3597 11.7423 18.3056C13.8142 17.594 19.7415 14.1799 19.7415 8.01839C19.7415 5.61322 17.7958 3.65847 15.4086 3.65847C14.0394 3.65847 12.7692 4.29804 11.9495 5.40604C11.6973 5.74835 11.1208 5.74835 10.8685 5.40604C10.0308 4.28903 8.76965 3.65847 7.40042 3.65847Z" fill="#907BB5"/>
</g>
</g>
</svg>
