<svg width="23" height="22" viewBox="0 0 23 22" fill="none" xmlns="http://www.w3.org/2000/svg">
<path d="M16.699 20.6117C16.2215 20.6117 15.609 20.4586 14.8433 20.0082L12.1499 18.4137C11.8706 18.2516 11.3301 18.2516 11.0599 18.4137L8.35746 20.0082C6.76303 20.954 5.82619 20.5757 5.40281 20.2694C4.98843 19.9631 4.33985 19.1794 4.76323 17.3778L5.40281 14.6123C5.47487 14.3241 5.33074 13.8286 5.11455 13.6124L2.88054 11.3784C1.76353 10.2614 1.85361 9.30655 2.00675 8.83813C2.15989 8.36971 2.64633 7.54097 4.19572 7.27973L7.0693 6.8023C7.33955 6.75726 7.7269 6.469 7.844 6.22578L9.43844 3.04592C10.1591 1.59562 11.1049 1.37943 11.6004 1.37943C12.0958 1.37943 13.0417 1.59562 13.7623 3.04592L15.3477 6.21677C15.4739 6.45999 15.8612 6.74825 16.1315 6.79329L19.005 7.27072C20.5634 7.53196 21.0499 8.3607 21.194 8.82912C21.3381 9.29755 21.4282 10.2524 20.3202 11.3694L18.0862 13.6124C17.87 13.8286 17.7349 14.3151 17.798 14.6123L18.4375 17.3778C18.8519 19.1794 18.2123 19.9631 17.798 20.2694C17.5727 20.4316 17.2124 20.6117 16.699 20.6117ZM11.6004 16.9364C12.0418 16.9364 12.4832 17.0445 12.8345 17.2517L15.5279 18.8461C16.3116 19.3146 16.8071 19.3146 16.9962 19.1794C17.1854 19.0443 17.3205 18.5669 17.1223 17.6841L16.4828 14.9186C16.3116 14.1709 16.5909 13.2071 17.1314 12.6576L19.3654 10.4236C19.8068 9.98216 20.0049 9.54977 19.9149 9.25251C19.8158 8.95524 19.4014 8.71202 18.7888 8.61293L15.9153 8.1355C15.2216 8.01839 14.465 7.45989 14.1497 6.82933L12.5642 3.65847C12.276 3.08196 11.9157 2.73965 11.6004 2.73965C11.2851 2.73965 10.9248 3.08196 10.6455 3.65847L9.05109 6.82933C8.7358 7.45989 7.97912 8.01839 7.2855 8.1355L4.42092 8.61293C3.80837 8.71202 3.394 8.95524 3.29491 9.25251C3.19582 9.54977 3.40301 9.99117 3.8444 10.4236L6.07841 12.6576C6.6189 13.1981 6.89815 14.1709 6.727 14.9186L6.08742 17.6841C5.88024 18.5759 6.02436 19.0443 6.21353 19.1794C6.40271 19.3146 6.88914 19.3055 7.68186 18.8461L10.3753 17.2517C10.7176 17.0445 11.159 16.9364 11.6004 16.9364Z" fill="#907BB5"/>
</svg>
