<svg width="17" height="18" viewBox="0 0 17 18" fill="none" xmlns="http://www.w3.org/2000/svg">
<g id="vuesax/outline/user-edit">
<g id="user-edit">
<path id="Vector" d="M8.50011 9.32334C6.31829 9.32334 4.54254 7.5476 4.54254 5.36577C4.54254 3.18395 6.31829 1.4082 8.50011 1.4082C10.6819 1.4082 12.4577 3.18395 12.4577 5.36577C12.4577 7.5476 10.6819 9.32334 8.50011 9.32334ZM8.50011 2.44061C6.88955 2.44061 5.57495 3.75521 5.57495 5.36577C5.57495 6.97633 6.88955 8.29093 8.50011 8.29093C10.1107 8.29093 11.4253 6.97633 11.4253 5.36577C11.4253 3.75521 10.1107 2.44061 8.50011 2.44061Z" fill="#E0E0E0"/>
<path id="Vector_2" d="M11.1293 16.2061C10.8677 16.2061 10.62 16.1097 10.441 15.9308C10.2277 15.7174 10.1313 15.4077 10.1795 15.0842L10.3102 14.1551C10.3447 13.9142 10.4892 13.632 10.6613 13.453L13.0977 11.0165C14.0751 10.0392 14.9355 10.5967 15.3553 11.0165C15.7132 11.3744 15.899 11.7598 15.899 12.1453C15.899 12.5376 15.7201 12.9024 15.3553 13.2672L12.9188 15.7037C12.7467 15.8757 12.4577 16.0203 12.2168 16.0547L11.2876 16.1854C11.2325 16.1992 11.1844 16.2061 11.1293 16.2061ZM14.2196 11.5052C14.0957 11.5052 13.9856 11.5878 13.8273 11.7461L11.3908 14.1826C11.3702 14.2032 11.3358 14.272 11.3358 14.2996L11.2119 15.1599L12.0722 15.036C12.0998 15.0291 12.1686 14.9947 12.1892 14.9741L14.6257 12.5376C14.7359 12.4275 14.8666 12.2692 14.8666 12.1453C14.8666 12.042 14.784 11.8975 14.6257 11.7461C14.4605 11.5809 14.3366 11.5052 14.2196 11.5052Z" fill="#E0E0E0"/>
<path id="Vector_3" d="M14.6396 13.7764C14.5914 13.7764 14.5432 13.7695 14.5019 13.7557C13.5934 13.5011 12.8707 12.7784 12.6161 11.8699C12.5404 11.5946 12.6987 11.3124 12.974 11.2367C13.2493 11.161 13.5315 11.3192 13.6072 11.5945C13.7655 12.1589 14.2129 12.6063 14.7773 12.7646C15.0526 12.8403 15.2109 13.1294 15.1352 13.3978C15.0732 13.625 14.8667 13.7764 14.6396 13.7764Z" fill="#E0E0E0"/>
<path id="Vector_4" d="M2.58798 16.2063C2.30579 16.2063 2.07178 15.9723 2.07178 15.6901C2.07178 12.7511 4.95566 10.356 8.50027 10.356C9.25049 10.356 9.99382 10.4661 10.689 10.6726C10.9643 10.7552 11.1157 11.0442 11.0331 11.3127C10.9505 11.588 10.6614 11.7394 10.393 11.6568C9.78734 11.4779 9.15413 11.3815 8.50027 11.3815C5.52693 11.3815 3.10419 13.3086 3.10419 15.6832C3.10419 15.9723 2.87017 16.2063 2.58798 16.2063Z" fill="#E0E0E0"/>
</g>
</g>
</svg>
