<svg width="19" height="19" viewBox="0 0 19 19" fill="none" xmlns="http://www.w3.org/2000/svg">
<g id="vuesax/outline/logout">
<g id="logout">
<path id="Vector" d="M11.8587 16.9255H11.7641C8.53183 16.9255 6.97394 15.6516 6.70458 12.7978C6.67547 12.4994 6.89386 12.23 7.19962 12.2009C7.49081 12.1718 7.76745 12.3974 7.79657 12.6959C8.00768 14.9818 9.08511 15.8336 11.7714 15.8336H11.866C14.8289 15.8336 15.8772 14.7852 15.8772 11.8223V7.07585C15.8772 4.11294 14.8289 3.06464 11.866 3.06464H11.7714C9.07055 3.06464 7.99312 3.93094 7.79657 6.26051C7.76017 6.55898 7.50537 6.78466 7.19962 6.75554C6.89386 6.7337 6.67546 6.46434 6.6973 6.16587C6.94482 3.26847 8.50999 1.97266 11.7641 1.97266H11.8587C15.4332 1.97266 16.9619 3.50143 16.9619 7.07585V11.8223C16.9619 15.3968 15.4332 16.9255 11.8587 16.9255Z" fill="#A3A3A3"/>
<path id="Vector_2" d="M11.6841 9.99433H3.39963C3.10115 9.99433 2.85364 9.74681 2.85364 9.44833C2.85364 9.14986 3.10115 8.90234 3.39963 8.90234H11.6841C11.9826 8.90234 12.2301 9.14986 12.2301 9.44833C12.2301 9.74681 11.9826 9.99433 11.6841 9.99433Z" fill="#A3A3A3"/>
<path id="Vector_3" d="M5.02285 12.4345C4.88453 12.4345 4.74621 12.3835 4.63701 12.2743L2.19825 9.83556C1.98714 9.62445 1.98714 9.27501 2.19825 9.06389L4.63701 6.62513C4.84813 6.41402 5.19757 6.41402 5.40868 6.62513C5.6198 6.83625 5.6198 7.18569 5.40868 7.3968L3.35576 9.44973L5.40868 11.5027C5.6198 11.7138 5.6198 12.0632 5.40868 12.2743C5.30676 12.3835 5.16117 12.4345 5.02285 12.4345Z" fill="#A3A3A3"/>
</g>
</g>
</svg>
