<svg width="20" height="21" viewBox="0 0 20 21" fill="none" xmlns="http://www.w3.org/2000/svg">
<g id="vuesax/outline/export">
<g id="export">
<path id="Vector" d="M12.7165 19.3489H7.2832C3.19153 19.3489 1.44153 17.5989 1.44153 13.5072V13.3989C1.44153 9.69886 2.89986 7.91552 6.16653 7.60719C6.49986 7.58219 6.81653 7.83219 6.84986 8.17386C6.8832 8.51552 6.6332 8.82386 6.2832 8.85719C3.66653 9.09886 2.69153 10.3322 2.69153 13.4072V13.5155C2.69153 16.9072 3.89153 18.1072 7.2832 18.1072H12.7165C16.1082 18.1072 17.3082 16.9072 17.3082 13.5155V13.4072C17.3082 10.3155 16.3165 9.08219 13.6499 8.85719C13.3082 8.82386 13.0499 8.52386 13.0832 8.18219C13.1165 7.84052 13.4082 7.58219 13.7582 7.61552C17.0749 7.89886 18.5582 9.69052 18.5582 13.4155V13.5239C18.5582 17.5989 16.8082 19.3489 12.7165 19.3489Z" fill="#E0E0E0" stroke="#E0E0E0" stroke-width="0.5"/>
<path id="Vector_2" d="M9.99988 13.9316C9.65821 13.9316 9.37488 13.6482 9.37488 13.3066V3.82324C9.37488 3.48158 9.65821 3.19824 9.99988 3.19824C10.3415 3.19824 10.6249 3.48158 10.6249 3.82324V13.3066C10.6249 13.6482 10.3415 13.9316 9.99988 13.9316Z" fill="#E0E0E0" stroke="#E0E0E0" stroke-width="0.5"/>
<path id="Vector_3" d="M12.7915 6.30716C12.6331 6.30716 12.4748 6.24883 12.3498 6.12383L9.99979 3.77383L7.64979 6.12383C7.40812 6.36549 7.00812 6.36549 6.76646 6.12383C6.52479 5.88216 6.52479 5.48216 6.76646 5.24049L9.55812 2.44883C9.79979 2.20716 10.1998 2.20716 10.4415 2.44883L13.2331 5.24049C13.4748 5.48216 13.4748 5.88216 13.2331 6.12383C13.1165 6.24883 12.9498 6.30716 12.7915 6.30716Z" fill="#E0E0E0" stroke="#E0E0E0" stroke-width="0.5"/>
</g>
</g>
</svg>
