<svg width="19" height="18" viewBox="0 0 19 18" fill="none" xmlns="http://www.w3.org/2000/svg">
<g id="vuesax/outline/lamp-on">
<g id="lamp-on">
<path id="Vector" d="M11.5221 14.4639H7.50009C7.17892 14.4639 6.77015 14.4274 6.50007 14.1501C6.23729 13.88 6.24459 13.5442 6.25189 13.3179V12.6683C4.41244 11.442 3.20074 9.31055 3.20074 7.28132C3.20074 5.36157 4.06207 3.56592 5.55845 2.36152C7.05483 1.15712 9.01837 0.704559 10.9381 1.12792C12.763 1.52939 14.3396 2.74839 15.1572 4.39075C16.7411 7.58059 15.2156 11.0332 12.7776 12.6756V13.223C12.7849 13.4347 12.7922 13.8216 12.4929 14.1282C12.2666 14.3471 11.9454 14.4639 11.5221 14.4639ZM7.3395 13.3617C7.376 13.3617 7.4271 13.369 7.49279 13.369H11.5221C11.5951 13.369 11.6461 13.3617 11.6753 13.3544C11.6753 13.3325 11.6753 13.3033 11.6753 13.2814V12.3617C11.6753 12.1719 11.7775 11.9894 11.9381 11.8945C14.0987 10.5879 15.5294 7.60249 14.1644 4.86522C13.4929 3.51483 12.1936 2.51481 10.6899 2.18634C9.09866 1.83597 7.47089 2.20824 6.23 3.20825C4.9891 4.20827 4.28106 5.69005 4.28106 7.28132C4.28106 9.31055 5.68254 11.0624 7.06943 11.9018C7.23731 12.004 7.3322 12.1792 7.3322 12.369V13.3544C7.3395 13.3544 7.3395 13.3544 7.3395 13.3617Z" fill="white"/>
<path id="Vector_2" d="M12.0546 16.6539C12.0036 16.6539 11.9525 16.6466 11.9014 16.632C10.3247 16.1794 8.66773 16.1794 7.09106 16.632C6.79908 16.7122 6.49981 16.5444 6.41221 16.2524C6.32462 15.9604 6.49981 15.6611 6.79178 15.5735C8.55824 15.0699 10.4342 15.0699 12.2006 15.5735C12.4926 15.6538 12.6605 15.9604 12.5802 16.2524C12.5145 16.5006 12.2955 16.6539 12.0546 16.6539Z" fill="white"/>
</g>
</g>
</svg>
