<svg width="23" height="23" viewBox="0 0 23 23" fill="none" xmlns="http://www.w3.org/2000/svg">
<g id="vuesax/outline/like-tag">
<g id="like-tag">
<path id="Vector" d="M13.6083 15.3025H11.8247C11.4103 15.3025 10.8068 15.1764 10.4554 14.825L9.06821 13.7531L9.89695 12.6811L11.3473 13.8071C11.4554 13.8882 11.6535 13.9423 11.8247 13.9423H13.6083C13.8785 13.9423 14.2028 13.708 14.2659 13.4738L15.4009 10.0057C15.4279 9.93366 15.4549 9.83455 15.4099 9.76249C15.3739 9.70844 15.2748 9.67243 15.1577 9.67243H13.284C12.9507 9.67243 12.6354 9.52835 12.4102 9.27613C12.194 9.0239 12.0949 8.68156 12.14 8.33925L12.3742 6.83486C12.4012 6.71775 12.3201 6.58268 12.221 6.54664C12.14 6.51962 12.0048 6.56461 11.9688 6.60965L10.0501 9.46526L8.92407 8.70861L10.8428 5.853C11.2211 5.28549 12.0229 5.02424 12.6714 5.26745C13.4011 5.51067 13.8695 6.32141 13.7074 7.07809L13.5182 8.3122H15.1577C15.7252 8.3122 16.2206 8.55541 16.5179 8.97879C16.8062 9.39316 16.8692 9.92463 16.6891 10.4381L15.5721 13.8432C15.3649 14.6449 14.5001 15.3025 13.6083 15.3025Z" fill="#907BB5"/>
<path id="Vector_2" d="M8.50091 14.7889H8.03249C6.62722 14.7889 6.42004 13.8071 6.42004 13.2215V8.63634C6.42004 8.05081 6.62722 7.06894 8.03249 7.06894H8.50091C9.90618 7.06894 10.1134 8.05081 10.1134 8.63634V13.2215C10.1134 13.8071 9.90618 14.7889 8.50091 14.7889ZM7.79828 13.4287C7.82531 13.4287 7.89737 13.4377 8.03249 13.4377H8.50091C8.64504 13.4377 8.72611 13.4197 8.75314 13.4107C8.75314 13.3927 8.76216 13.3386 8.76216 13.2215V8.63634C8.76216 8.51923 8.75314 8.4562 8.74414 8.43819C8.72612 8.43819 8.65405 8.42917 8.50091 8.42917H8.03249C7.88836 8.42917 7.80729 8.44721 7.78026 8.45622C7.78026 8.47424 7.77126 8.52825 7.77126 8.64536V13.2306C7.77126 13.3477 7.78027 13.4107 7.78928 13.4377C7.78928 13.4287 7.79828 13.4287 7.79828 13.4287Z" fill="#907BB5"/>
<path id="Vector_3" d="M11.5997 21.2838C10.9691 21.2838 10.3296 21.0405 9.85213 20.5631L8.31175 19.0407C7.9244 18.6624 7.41994 18.4552 6.87945 18.4552H6.19484C4.33016 18.4552 2.8168 16.9509 2.8168 15.1042V5.27634C2.8168 3.42968 4.33016 1.92535 6.19484 1.92535H17.0046C18.8692 1.92535 20.3826 3.42968 20.3826 5.27634V15.1042C20.3826 16.9509 18.8692 18.4552 17.0046 18.4552H16.32C15.7795 18.4552 15.266 18.6624 14.8877 19.0407L13.3473 20.5631C12.8698 21.0405 12.2303 21.2838 11.5997 21.2838ZM6.19484 3.26755C5.07784 3.26755 4.16802 4.16834 4.16802 5.26732V15.0952C4.16802 16.2032 5.07784 17.095 6.19484 17.095H6.87945C7.78026 17.095 8.62703 17.4463 9.26661 18.0768L10.807 19.5992C11.2484 20.0316 11.96 20.0316 12.4014 19.5992L13.9418 18.0768C14.5814 17.4463 15.4281 17.095 16.329 17.095H17.0046C18.1216 17.095 19.0314 16.1942 19.0314 15.0952V5.26732C19.0314 4.15933 18.1216 3.26755 17.0046 3.26755H6.19484Z" fill="#907BB5"/>
</g>
</g>
</svg>
