<svg width="23" height="23" viewBox="0 0 23 23" fill="none" xmlns="http://www.w3.org/2000/svg">
<g id="vuesax/outline/medal">
<g id="medal">
<path id="Vector" d="M11.4004 14.9781C7.67107 14.9781 4.64435 12.0505 4.64435 8.44722C4.64435 4.84398 7.67107 1.91635 11.4004 1.91635C15.1298 1.91635 18.1565 4.84398 18.1565 8.44722C18.1565 12.0505 15.1298 14.9781 11.4004 14.9781ZM11.4004 3.26757C8.41874 3.26757 5.99556 5.59166 5.99556 8.44722C5.99556 11.3028 8.41874 13.6269 11.4004 13.6269C14.3821 13.6269 16.8053 11.3028 16.8053 8.44722C16.8053 5.59166 14.3821 3.26757 11.4004 3.26757Z" fill="#907BB5"/>
<path id="Vector_2" d="M14.6614 21.2839C14.4092 21.2839 14.1569 21.2208 13.8957 21.1037L11.4725 19.9597C11.4455 19.9507 11.3464 19.9507 11.3104 19.9597L8.90522 21.0947C8.37374 21.3469 7.81524 21.3379 7.38285 21.0587C6.93244 20.7704 6.67121 20.2389 6.68022 19.6084L6.68921 12.9604C6.68921 12.5911 6.97747 12.2668 7.36482 12.2848C7.73415 12.2848 8.04042 12.5911 8.04042 12.9604L8.03143 19.6084C8.03143 19.8066 8.08548 19.9056 8.1125 19.9146C8.13052 19.9237 8.21159 19.9326 8.33771 19.8696L10.7519 18.7256C11.1392 18.5454 11.6707 18.5454 12.0581 18.7256L14.4812 19.8696C14.6074 19.9326 14.6884 19.9237 14.7064 19.9146C14.7335 19.8966 14.7875 19.7975 14.7875 19.6084V12.7982C14.7875 12.4289 15.0938 12.1226 15.4631 12.1226C15.8324 12.1226 16.1387 12.4289 16.1387 12.7982V19.6084C16.1387 20.248 15.8775 20.7704 15.4271 21.0587C15.1929 21.2118 14.9316 21.2839 14.6614 21.2839Z" fill="#907BB5"/>
</g>
</g>
</svg>
